<?xml version="1.0" encoding="UTF-8" standalone="no"?>
<!-- Created with Inkscape (http://www.inkscape.org/) -->

<svg
   xmlns:dc="http://purl.org/dc/elements/1.1/"
   xmlns:cc="http://creativecommons.org/ns#"
   xmlns:rdf="http://www.w3.org/1999/02/22-rdf-syntax-ns#"
   xmlns:svg="http://www.w3.org/2000/svg"
   xmlns="http://www.w3.org/2000/svg"
   xmlns:sodipodi="http://sodipodi.sourceforge.net/DTD/sodipodi-0.dtd"
   xmlns:inkscape="http://www.inkscape.org/namespaces/inkscape"
   width="744.09448819"
   height="1052.3622047"
   id="svg2"
   version="1.1"
   inkscape:version="0.48.4 r9939"
   sodipodi:docname="New document 1">
  <defs
     id="defs4" />
  <sodipodi:namedview
     id="base"
     pagecolor="#ffffff"
     bordercolor="#666666"
     borderopacity="1.0"
     inkscape:pageopacity="0.0"
     inkscape:pageshadow="2"
     inkscape:zoom="0.35"
     inkscape:cx="260.04103"
     inkscape:cy="371.20752"
     inkscape:document-units="px"
     inkscape:current-layer="layer1"
     showgrid="false"
     inkscape:window-width="1440"
     inkscape:window-height="838"
     inkscape:window-x="-8"
     inkscape:window-y="-8"
     inkscape:window-maximized="1" />
  <metadata
     id="metadata7">
    <rdf:RDF>
      <cc:Work
         rdf:about="">
        <dc:format>image/svg+xml</dc:format>
        <dc:type
           rdf:resource="http://purl.org/dc/dcmitype/StillImage" />
        <dc:title></dc:title>
      </cc:Work>
    </rdf:RDF>
  </metadata>
  <g
     inkscape:label="Layer 1"
     inkscape:groupmode="layer"
     id="layer1">
    <path
       id="path3816"
       style="fill:#000000;fill-opacity:1;stroke:none"
       d="m 393.55873,121.86641 c 6.883,57.33587 2.67233,121.13369 35.92611,170.33866 17.5415,13.45615 62.22473,56.83058 57.20767,52.07093 -18.7483,-44.02399 -77.10435,-55.94909 -75.10324,-110.81107 -8.15967,-36.77207 -13.13271,-74.22207 -18.03054,-111.59852 z m 258.19409,346.34415 c -25.17241,3.80638 -43.67412,44.38249 -41.88593,55.7059 7.32394,-23.65459 23.89564,-40.53149 41.88593,-55.7059 z M 23.266143,704.26634 C 25.045025,724.932 79.18712,760.6429 49.263821,723.17943 39.257487,718.84011 28.321462,715.51746 23.266143,704.26634 z m 45.02317,-12.57674 c 2.841065,-44.70031 -70.6534222,-30.77252 -46.86085,9.67442 -3.979288,-28.68771 30.63086,-43.15541 39.510124,-12.57675 l 7.350726,2.90233 z m -2.756524,119.96278 c 2.386498,41.69859 -53.947389,63.22241 -33.185986,105.85672 30.943279,17.88211 76.077917,10.37818 107.033527,-7.34316 8.28483,-15.31537 -34.81301,-45.90059 -17.56636,-7.92251 -13.75788,23.69318 -80.078022,38.09789 -87.155304,-2.79654 4.256181,-31.69413 41.912724,-53.32403 30.874123,-87.79451 z m 66.156481,29.02325 c -10.25044,14.10248 -19.06269,25.7957 -7.12364,2.72674 2.86037,-5.37007 2.61041,-10.98814 7.12364,-2.72674 z m 207.65789,3.86976 c 0.10805,20.19704 48.73033,38.92699 5.71404,23.46047 -10.0218,-3.22454 -8.16868,-66.87042 -5.71404,-23.46047 z m -79.22407,1.81751 c 17.4762,47.57896 73.36506,51.48202 114.63849,45.42361 21.66379,0.32891 33.07848,-2.71754 5.93339,-9.5109 -35.39017,-9.85347 -77.15161,21.65212 -104.04672,-19.23971 -5.70713,-5.33321 -11.22745,-10.88988 -16.52516,-16.673 z m -105.4628,-21.16633 c 52.09092,14.48245 108.47396,26.31889 160.44551,4.6811 18.43966,-8.67433 86.76938,6.60374 35.1075,-6.68108 -39.8659,-10.14464 -76.69013,23.70626 -117.4516,13.60928 -23.99197,-15.49172 -51.02192,-13.59883 -78.10141,-11.6093 z M 69.208146,801.97796 c 16.225089,37.80452 66.333994,46.79418 89.591574,10.4711 28.98988,-35.06181 25.35937,-85.80663 25.26345,-129.46644 -5.70219,48.93949 -3.62835,108.82629 -47.17089,140.05594 -20.74509,21.15263 -53.473819,-3.43941 -67.684134,-21.0606 z M 427.55581,485.62451 c -26.63336,38.95077 -76.76136,14.47867 -114.8583,20.08217 -53.72906,-0.18419 -114.26815,4.98133 -156.33944,44.02941 -38.6899,41.41315 -79.154234,88.34897 -83.171034,149.34747 -2.455152,26.69933 -23.629497,74.63221 -5.069403,86.28723 -3.525571,-63.34785 14.314216,-130.19041 60.674317,-173.35741 22.34304,-26.77328 29.81272,-68.13941 68.13499,-77.04935 45.87851,-26.30123 100.75897,-25.52501 149.81844,-10.85451 27.95494,-4.04893 68.89408,-6.34968 80.81043,-38.48501 z m -33.07824,185.74881 c -3.81819,37.8246 -45.26484,65.23394 -30.34734,105.17202 13.6549,50.86489 50.91415,91.34182 58.83138,144.42795 -0.4057,45.7372 66.40152,36.2307 77.40249,40.4458 -21.80975,-1.95 -44.82077,0.094 -65.90527,-4.2674 -32.85544,-24.73911 -15.66976,-76.71506 -47.53559,-106.209 -6.94821,-40.39459 -59.63449,-73.97752 -32.3078,-116.53383 15.36151,-19.85723 32.58711,-37.3481 39.86213,-63.03554 z m 121.2869,118.0279 c -0.70143,42.66453 -0.30714,84.33739 29.94138,115.40309 26.34355,31.29935 -46.39771,25.74077 -23.94313,17.39433 48.70876,3.68589 -1.67604,-49.39158 -16.10549,-65.0765 -4.26048,-22.85524 3.67886,-46.16663 10.10724,-67.72092 z M 633.37602,586.23845 c -9.46949,36.0141 -34.53967,65.62094 -37.67245,103.51627 -11.79697,42.40525 -43.45523,77.82705 -81.65079,94.8393 -25.70749,24.10302 -50.17499,65.1401 -30.44771,101.55137 12.46737,18.84288 52.03351,58.28655 24.80869,75.4605 14.66686,-34.52822 -32.44989,-67.3281 -36.75361,-103.51631 -1.24618,-33.46113 19.36827,-75.79737 52.41811,-83.63325 29.31346,-24.18959 55.31131,-58.73665 69.69247,-95.17789 8.19852,-32.8482 22.83848,-64.13182 39.60529,-93.03999 z M 454.57407,531.78753 c 44.49652,4.21935 60.99924,58.97262 106.78214,57.26297 17.48635,8.00915 65.89721,-5.89999 68.7179,-11.9674 -36.32794,12.9914 -79.04585,17.74623 -110.81009,-10.00794 -16.98738,-20.46369 -39.09316,-32.33463 -64.68995,-35.28763 z m 1.29942,-120.39889 c -12.14816,34.8385 -35.27693,72.49571 -16.24295,110.13762 -13.03613,-40.45126 14.14336,-71.13493 16.24295,-110.13762 l 0,0 z m 265.08499,68.40846 c 11.20241,35.1781 -3.75346,93.91021 -47.42941,86.87875 38.74285,-1.40536 54.58774,-46.16273 47.42941,-86.87875 z m -24.68928,45.14958 c -2.47009,42.00932 -73.33461,69.76676 -89.02082,26.30004 -3.72237,-18.60782 -2.31431,-34.27466 3.25802,-6.46158 9.46962,43.39387 72.23634,23.09265 81.56617,-11.6499 l 2.22644,-4.23177 1.97019,-3.95679 0,0 z M 683.27484,488.6902 c 4.2188,15.19704 16.91332,44.42662 22.74013,15.73395 13.97257,-21.71654 -2.31825,-28.98734 -2.87556,-0.60572 -7.41183,0.36253 -6.68092,-24.03743 -19.86457,-15.12823 z M 548.78319,418.91357 c 24.26819,-21.52038 48.60516,1.79398 46.55506,29.0354 -0.30079,9.31875 -56.72673,7.46934 -46.22253,-25.88438 l -0.24174,-2.29064 -0.0908,-0.86038 z m 70.81927,-80.72199 c 43.20233,14.29188 84.89124,48.1943 81.63031,100.74593 3.79432,15.51412 31.30837,51.74233 5.51412,19.82749 -15.1211,-36.90256 -19.90554,-86.56283 -60.51485,-106.37077 -8.65419,-5.17746 -17.56516,-9.87609 -26.62958,-14.20265 z M 376.60789,110.39141 c -25.41489,56.73683 -7.75831,123.67984 15.62753,177.76473 12.96002,33.06929 45.75523,50.47566 59.73976,82.18742 -13.77324,19.31017 18.28974,44.87298 11.36164,15.43151 -8.75373,-22.41198 -25.2881,-48.90962 -46.24056,-68.10089 -46.60014,-55.55854 -57.40165,-136.92106 -40.48837,-207.28277 z m 263.13584,24.62703 c -27.43355,53.62808 -37.77856,115.56879 -40.97676,175.79357 -3.14667,19.45745 27.09582,34.08183 -1.25492,15.75013 -8.13005,-32.19693 2.13809,-66.87358 7.18267,-99.21958 7.45591,-32.44485 11.3383,-67.59723 35.04901,-92.32412 z M 534.48939,254.73325 c 3.79074,-43.75211 26.9684,-81.96258 60.72891,-107.08188 17.94535,-11.79974 54.56044,-68.889592 67.67603,-39.26071 3.18394,24.47346 -33.91483,31.38834 -10.98996,6.30014 22.53085,-34.387142 -30.46452,7.47274 -34.90078,21.01173 -31.45897,22.90937 -58.39196,52.98335 -71.37229,91.54959 -3.89014,9.07964 -7.61217,18.23952 -11.14191,27.48113 z m 16.24296,76.61749 c -17.21262,-31.90225 -15.86361,-73.21199 -23.15486,-109.50275 -0.60121,-13.69669 -24.3611,-54.35871 -8.91188,-18.99721 13.30379,41.83464 10.15933,90.5863 27.5187,129.18404 0.18011,0.70874 14.29154,3.22049 4.54804,-0.68408 z m -51.32774,56.77902 c 16.72384,-32.457 34.86686,-66.99037 26.44786,-105.70449 -5.77796,-42.76357 -10.19842,-87.02731 -25.89634,-127.19343 -19.92245,-33.89273 -46.7548,-82.137232 -91.5033,-72.540332 -18.28801,2.74024 -42.11873,40.691932 -10.40425,16.75454 37.14414,-21.13835 76.296,15.696272 92.25997,49.254092 29.14047,51.91572 22.90389,113.74465 18.19211,171.02116 1.8509,26.2595 -51.72842,78.10985 -16.0585,87.73707 7.95202,-4.00685 8.62493,-11.24354 6.96245,-19.32861 z"
       inkscape:connector-curvature="0" />
  </g>
</svg>
